<svg xmlns="http://www.w3.org/2000/svg" xmlns:xlink="http://www.w3.org/1999/xlink" width="258" zoomAndPan="magnify" viewBox="0 0 193.5 112.499997" height="150" preserveAspectRatio="xMidYMid meet" version="1.0"><defs><g/><clipPath id="2366d90044"><path d="M 7.65625 33.601562 L 51.011719 33.601562 L 51.011719 76.953125 L 7.65625 76.953125 Z M 7.65625 33.601562 " clip-rule="nonzero"/></clipPath><clipPath id="19130ee476"><path d="M 22.117188 34.21875 C 24.328125 33.84375 26.867188 33.601562 29.34375 33.601562 C 31.824219 33.601562 34.210938 33.8125 36.410156 34.183594 C 36.457031 34.195312 36.503906 34.195312 36.550781 34.207031 C 44.808594 35.695312 50.894531 39.632812 51.011719 44.609375 L 51.011719 76.953125 L 7.65625 76.953125 L 7.65625 44.632812 C 7.773438 39.609375 13.761719 35.671875 22.117188 34.21875 Z M 22.117188 34.21875 " clip-rule="nonzero"/></clipPath><clipPath id="d201cc0726"><path d="M 22.117188 34.21875 C 24.328125 33.84375 26.867188 33.601562 29.34375 33.601562 C 31.824219 33.601562 34.210938 33.8125 36.410156 34.183594 C 36.457031 34.195312 36.503906 34.195312 36.550781 34.207031 C 44.808594 35.695312 50.894531 39.632812 51.011719 44.609375 L 51.011719 76.953125 L 7.65625 76.953125 L 7.65625 44.632812 C 7.773438 39.609375 13.761719 35.671875 22.117188 34.21875 Z M 22.117188 34.21875 " clip-rule="nonzero"/></clipPath><clipPath id="861dca87ce"><path d="M 12.257812 39 L 45.160156 39 L 45.160156 73.832031 L 12.257812 73.832031 Z M 12.257812 39 " clip-rule="nonzero"/></clipPath><clipPath id="cca6ce0da7"><path d="M 25.644531 45.851562 C 25.542969 42.054688 24.671875 41.191406 24.023438 41.078125 C 23.371094 40.96875 22.613281 41.40625 22.070312 41.949219 C 21.527344 42.492188 21.199219 43.25 21.097656 44.65625 C 20.664062 48.339844 23.914062 60.808594 23.804688 65.574219 C 23.804688 68.070312 23.804688 69.914062 22.722656 71.207031 C 21.855469 72.507812 19.796875 73.8125 18.382812 73.8125 C 16.867188 73.8125 15.023438 72.507812 14.050781 71.320312 C 13.074219 70.234375 12.644531 68.71875 12.421875 67.203125 C 12.316406 65.46875 12.421875 62.867188 13.289062 61.128906 C 14.050781 59.507812 15.460938 58.09375 17.082031 57.011719 C 18.820312 55.929688 21.742188 55.0625 23.480469 54.847656 C 24.78125 54.734375 25.863281 54.734375 26.84375 55.171875 C 27.921875 55.710938 28.789062 56.578125 29.445312 57.769531 C 30.308594 59.507812 30.851562 62.539062 30.960938 64.816406 C 31.066406 66.769531 30.746094 70.128906 30.089844 70.449219 C 29.765625 70.5625 29.222656 70.128906 28.902344 69.585938 C 28.246094 68.613281 27.921875 65.46875 28.03125 63.296875 C 28.246094 61.238281 28.902344 57.992188 29.980469 57.011719 C 30.632812 56.363281 31.503906 56.25 32.261719 56.25 C 33.339844 56.363281 34.753906 56.792969 35.621094 57.878906 C 37.136719 59.9375 36.8125 68.828125 38.222656 69.371094 C 38.980469 69.691406 40.28125 68.390625 41.039062 67.203125 C 42.339844 64.925781 41.800781 56.578125 43.101562 55.171875 C 43.53125 54.628906 44.617188 54.519531 44.832031 54.734375 C 45.046875 54.949219 44.941406 56.363281 44.617188 56.472656 C 44.289062 56.6875 42.988281 55.929688 42.988281 55.605469 C 42.988281 55.277344 44.402344 54.410156 44.722656 54.628906 C 45.375 54.949219 45.160156 58.421875 44.832031 60.480469 C 44.402344 63.195312 43.53125 67.632812 42.230469 69.476562 C 41.257812 70.671875 39.957031 71.429688 38.980469 71.535156 C 38.113281 71.644531 37.355469 71.535156 36.699219 70.992188 C 35.941406 70.34375 35.40625 68.933594 34.96875 67.417969 C 34.320312 65.359375 34.96875 60.695312 33.992188 59.394531 C 33.453125 58.636719 32.367188 58.09375 31.71875 58.421875 C 30.960938 58.75 30.417969 61.128906 30.203125 62.757812 C 29.980469 64.816406 31.609375 68.613281 30.960938 69.585938 C 30.632812 70.128906 29.765625 70.5625 29.332031 70.234375 C 28.246094 69.585938 28.683594 61.566406 27.816406 59.394531 C 27.273438 58.3125 26.84375 57.664062 26.1875 57.230469 C 25.542969 56.90625 24.671875 56.90625 23.804688 57.011719 C 22.398438 57.121094 20.011719 57.769531 18.605469 58.636719 C 17.304688 59.394531 16.21875 60.265625 15.566406 61.457031 C 14.808594 62.867188 14.480469 65.359375 14.59375 66.875 C 14.703125 68.175781 15.246094 69.585938 16.003906 70.34375 C 16.761719 71.105469 18.167969 71.863281 19.035156 71.535156 C 20.121094 71.207031 21.199219 69.585938 21.636719 67.632812 C 22.503906 63.839844 19.035156 54.191406 18.820312 49.53125 C 18.710938 46.824219 18.710938 44.65625 19.253906 42.8125 C 19.683594 41.40625 20.441406 40.105469 21.421875 39.5625 C 22.503906 38.910156 24.34375 38.804688 25.429688 39.347656 C 26.730469 40.105469 28.359375 42.597656 28.464844 44.007812 C 28.574219 45.199219 27.816406 46.929688 27.164062 47.367188 C 26.730469 47.582031 25.972656 47.582031 25.757812 47.257812 C 25.429688 47.039062 25.644531 45.851562 25.644531 45.851562 " clip-rule="nonzero"/></clipPath><clipPath id="643e3e7545"><path d="M 25.644531 45.851562 C 25.542969 42.054688 24.671875 41.191406 24.023438 41.078125 C 23.371094 40.96875 22.613281 41.40625 22.070312 41.949219 C 21.527344 42.492188 21.199219 43.25 21.097656 44.65625 C 20.664062 48.339844 23.914062 60.808594 23.804688 65.574219 C 23.804688 68.070312 23.804688 69.914062 22.722656 71.207031 C 21.855469 72.507812 19.796875 73.8125 18.382812 73.8125 C 16.867188 73.8125 15.023438 72.507812 14.050781 71.320312 C 13.074219 70.234375 12.644531 68.71875 12.421875 67.203125 C 12.316406 65.46875 12.421875 62.867188 13.289062 61.128906 C 14.050781 59.507812 15.460938 58.09375 17.082031 57.011719 C 18.820312 55.929688 21.742188 55.0625 23.480469 54.847656 C 24.78125 54.734375 25.863281 54.734375 26.84375 55.171875 C 27.921875 55.710938 28.789062 56.578125 29.445312 57.769531 C 30.308594 59.507812 30.851562 62.539062 30.960938 64.816406 C 31.066406 66.769531 30.746094 70.128906 30.089844 70.449219 C 29.765625 70.5625 29.222656 70.128906 28.902344 69.585938 C 28.246094 68.613281 27.921875 65.46875 28.03125 63.296875 C 28.246094 61.238281 28.902344 57.992188 29.980469 57.011719 C 30.632812 56.363281 31.503906 56.25 32.261719 56.25 C 33.339844 56.363281 34.753906 56.792969 35.621094 57.878906 C 37.136719 59.9375 36.8125 68.828125 38.222656 69.371094 C 38.980469 69.691406 40.28125 68.390625 41.039062 67.203125 C 42.339844 64.925781 41.800781 56.578125 43.101562 55.171875 C 43.53125 54.628906 44.617188 54.519531 44.832031 54.734375 C 45.046875 54.949219 44.941406 56.363281 44.617188 56.472656 C 44.289062 56.6875 42.988281 55.929688 42.988281 55.605469 C 42.988281 55.277344 44.402344 54.410156 44.722656 54.628906 C 45.375 54.949219 45.160156 58.421875 44.832031 60.480469 C 44.402344 63.195312 43.53125 67.632812 42.230469 69.476562 C 41.257812 70.671875 39.957031 71.429688 38.980469 71.535156 C 38.113281 71.644531 37.355469 71.535156 36.699219 70.992188 C 35.941406 70.34375 35.40625 68.933594 34.96875 67.417969 C 34.320312 65.359375 34.96875 60.695312 33.992188 59.394531 C 33.453125 58.636719 32.367188 58.09375 31.71875 58.421875 C 30.960938 58.75 30.417969 61.128906 30.203125 62.757812 C 29.980469 64.816406 31.609375 68.613281 30.960938 69.585938 C 30.632812 70.128906 29.765625 70.5625 29.332031 70.234375 C 28.246094 69.585938 28.683594 61.566406 27.816406 59.394531 C 27.273438 58.3125 26.84375 57.664062 26.1875 57.230469 C 25.542969 56.90625 24.671875 56.90625 23.804688 57.011719 C 22.398438 57.121094 20.011719 57.769531 18.605469 58.636719 C 17.304688 59.394531 16.21875 60.265625 15.566406 61.457031 C 14.808594 62.867188 14.480469 65.359375 14.59375 66.875 C 14.703125 68.175781 15.246094 69.585938 16.003906 70.34375 C 16.761719 71.105469 18.167969 71.863281 19.035156 71.535156 C 20.121094 71.207031 21.199219 69.585938 21.636719 67.632812 C 22.503906 63.839844 19.035156 54.191406 18.820312 49.53125 C 18.710938 46.824219 18.710938 44.65625 19.253906 42.8125 C 19.683594 41.40625 20.441406 40.105469 21.421875 39.5625 C 22.503906 38.910156 24.34375 38.804688 25.429688 39.347656 C 26.730469 40.105469 28.359375 42.597656 28.464844 44.007812 C 28.574219 45.199219 27.816406 46.929688 27.164062 47.367188 C 26.730469 47.582031 25.972656 47.582031 25.757812 47.257812 C 25.429688 47.039062 25.644531 45.851562 25.644531 45.851562 " clip-rule="nonzero"/></clipPath><clipPath id="10874960f0"><path d="M 12 0.203125 L 17 0.203125 L 17 24 L 12 24 Z M 12 0.203125 " clip-rule="nonzero"/></clipPath><clipPath id="31b313a60f"><rect x="0" width="134" y="0" height="32"/></clipPath><clipPath id="007fb8200c"><path d="M 0.363281 2 L 5 2 L 5 8 L 0.363281 8 Z M 0.363281 2 " clip-rule="nonzero"/></clipPath><clipPath id="3421c81ade"><path d="M 116 2 L 117.921875 2 L 117.921875 8 L 116 8 Z M 116 2 " clip-rule="nonzero"/></clipPath><clipPath id="2eaf969e6f"><rect x="0" width="118" y="0" height="10"/></clipPath></defs><g clip-path="url(#2366d90044)"><g clip-path="url(#19130ee476)"><g clip-path="url(#d201cc0726)"><path fill="#1e85d9" d="M 7.65625 33.601562 L 51.011719 33.601562 L 51.011719 76.953125 L 7.65625 76.953125 Z M 7.65625 33.601562 " fill-opacity="1" fill-rule="nonzero"/></g></g></g><g clip-path="url(#861dca87ce)"><g clip-path="url(#cca6ce0da7)"><g clip-path="url(#643e3e7545)"><path fill="#000000" d="M -2.921875 23.746094 L 61.589844 23.746094 L 61.589844 88.257812 L -2.921875 88.257812 Z M -2.921875 23.746094 " fill-opacity="1" fill-rule="nonzero"/></g></g></g><g transform="matrix(1, 0, 0, 1, 57, 44)"><g clip-path="url(#31b313a60f)"><g fill="#000000" fill-opacity="1"><g transform="translate(1.0599, 23.596876)"><g><path d="M 4.984375 -10.140625 L 4.984375 -1.25 C 4.984375 -0.414062 4.570312 0 3.75 0 L 3.125 0 C 2.289062 0 1.875 -0.414062 1.875 -1.25 L 1.875 -20.578125 C 1.875 -21.410156 2.289062 -21.828125 3.125 -21.828125 L 8.421875 -21.828125 C 9.253906 -21.828125 9.671875 -21.410156 9.671875 -20.578125 L 9.671875 -20.265625 C 9.671875 -19.441406 9.253906 -19.03125 8.421875 -19.03125 L 5.609375 -19.03125 C 5.191406 -19.03125 4.984375 -18.820312 4.984375 -18.40625 L 4.984375 -14.1875 C 4.984375 -13.769531 5.191406 -13.5625 5.609375 -13.5625 L 7.171875 -13.5625 C 8.003906 -13.5625 8.421875 -13.144531 8.421875 -12.3125 L 8.421875 -12 C 8.421875 -11.175781 8.003906 -10.765625 7.171875 -10.765625 L 5.609375 -10.765625 C 5.191406 -10.765625 4.984375 -10.554688 4.984375 -10.140625 Z M 4.984375 -10.140625 "/></g></g></g><g clip-path="url(#10874960f0)"><g fill="#000000" fill-opacity="1"><g transform="translate(11.352178, 23.596876)"><g><path d="M 3.4375 -20.265625 L 2.8125 -20.265625 C 1.976562 -20.265625 1.5625 -20.679688 1.5625 -21.515625 L 1.5625 -22.140625 C 1.5625 -22.972656 1.976562 -23.390625 2.8125 -23.390625 L 3.4375 -23.390625 C 4.257812 -23.390625 4.671875 -22.972656 4.671875 -22.140625 L 4.671875 -21.515625 C 4.671875 -20.679688 4.257812 -20.265625 3.4375 -20.265625 Z M 3.4375 0 L 2.8125 0 C 1.976562 0 1.5625 -0.414062 1.5625 -1.25 L 1.5625 -17.46875 C 1.5625 -18.300781 1.976562 -18.71875 2.8125 -18.71875 L 3.4375 -18.71875 C 4.257812 -18.71875 4.671875 -18.300781 4.671875 -17.46875 L 4.671875 -1.25 C 4.671875 -0.414062 4.257812 0 3.4375 0 Z M 3.4375 0 "/></g></g></g></g><g fill="#000000" fill-opacity="1"><g transform="translate(17.589923, 23.596876)"><g><path d="M 10.921875 -14.96875 L 10.921875 -1.25 C 10.921875 -0.414062 10.503906 0 9.671875 0 L 9.046875 0 C 8.210938 0 7.796875 -0.414062 7.796875 -1.25 L 7.796875 -14.65625 C 7.796875 -15.488281 7.378906 -15.90625 6.546875 -15.90625 L 5.921875 -15.90625 C 5.085938 -15.90625 4.671875 -15.488281 4.671875 -14.65625 L 4.671875 -1.25 C 4.671875 -0.414062 4.257812 0 3.4375 0 L 2.8125 0 C 1.976562 0 1.5625 -0.414062 1.5625 -1.25 L 1.5625 -14.96875 C 1.5625 -16.28125 1.859375 -17.234375 2.453125 -17.828125 C 3.046875 -18.421875 3.992188 -18.71875 5.296875 -18.71875 L 7.171875 -18.71875 C 8.484375 -18.71875 9.4375 -18.421875 10.03125 -17.828125 C 10.625 -17.234375 10.921875 -16.28125 10.921875 -14.96875 Z M 10.921875 -14.96875 "/></g></g></g><g fill="#000000" fill-opacity="1"><g transform="translate(30.065412, 23.596876)"><g><path d="M 5.765625 -2.8125 L 6.390625 -2.8125 C 7.222656 -2.8125 7.640625 -3.222656 7.640625 -4.046875 L 7.640625 -9.890625 L 5.796875 -8.828125 C 5.566406 -8.679688 5.351562 -8.546875 5.15625 -8.421875 C 4.957031 -8.296875 4.800781 -8.109375 4.6875 -7.859375 C 4.570312 -7.609375 4.515625 -7.222656 4.515625 -6.703125 L 4.515625 -4.046875 C 4.515625 -3.222656 4.929688 -2.8125 5.765625 -2.8125 Z M 10.765625 -14.96875 L 10.765625 -3.75 C 10.765625 -2.4375 10.46875 -1.484375 9.875 -0.890625 C 9.28125 -0.296875 8.328125 0 7.015625 0 L 5.140625 0 C 3.835938 0 2.890625 -0.296875 2.296875 -0.890625 C 1.703125 -1.484375 1.40625 -2.4375 1.40625 -3.75 L 1.40625 -7.171875 C 1.40625 -8.171875 1.59375 -8.9375 1.96875 -9.46875 C 2.34375 -10 2.816406 -10.429688 3.390625 -10.765625 C 3.972656 -11.097656 4.566406 -11.4375 5.171875 -11.78125 L 6.390625 -12.5 C 6.742188 -12.707031 7.039062 -12.929688 7.28125 -13.171875 C 7.519531 -13.410156 7.640625 -13.863281 7.640625 -14.53125 C 7.640625 -14.988281 7.554688 -15.332031 7.390625 -15.5625 C 7.222656 -15.789062 6.890625 -15.90625 6.390625 -15.90625 L 3.28125 -15.90625 C 2.445312 -15.90625 2.03125 -16.320312 2.03125 -17.15625 L 2.03125 -17.46875 C 2.03125 -18.300781 2.445312 -18.71875 3.28125 -18.71875 L 7.015625 -18.71875 C 8.328125 -18.71875 9.28125 -18.421875 9.875 -17.828125 C 10.46875 -17.234375 10.765625 -16.28125 10.765625 -14.96875 Z M 10.765625 -14.96875 "/></g></g></g><g fill="#000000" fill-opacity="1"><g transform="translate(42.384958, 23.596876)"><g><path d="M 10.921875 -14.96875 L 10.921875 -1.25 C 10.921875 -0.414062 10.503906 0 9.671875 0 L 9.046875 0 C 8.210938 0 7.796875 -0.414062 7.796875 -1.25 L 7.796875 -14.65625 C 7.796875 -15.488281 7.378906 -15.90625 6.546875 -15.90625 L 5.921875 -15.90625 C 5.085938 -15.90625 4.671875 -15.488281 4.671875 -14.65625 L 4.671875 -1.25 C 4.671875 -0.414062 4.257812 0 3.4375 0 L 2.8125 0 C 1.976562 0 1.5625 -0.414062 1.5625 -1.25 L 1.5625 -14.96875 C 1.5625 -16.28125 1.859375 -17.234375 2.453125 -17.828125 C 3.046875 -18.421875 3.992188 -18.71875 5.296875 -18.71875 L 7.171875 -18.71875 C 8.484375 -18.71875 9.4375 -18.421875 10.03125 -17.828125 C 10.625 -17.234375 10.921875 -16.28125 10.921875 -14.96875 Z M 10.921875 -14.96875 "/></g></g></g><g fill="#000000" fill-opacity="1"><g transform="translate(54.860447, 23.596876)"><g><path d="M 9.359375 0 L 5.296875 0 C 3.992188 0 3.046875 -0.296875 2.453125 -0.890625 C 1.859375 -1.484375 1.5625 -2.4375 1.5625 -3.75 L 1.5625 -14.96875 C 1.5625 -16.28125 1.859375 -17.234375 2.453125 -17.828125 C 3.046875 -18.421875 3.992188 -18.71875 5.296875 -18.71875 L 7.171875 -18.71875 C 8.484375 -18.71875 9.4375 -18.421875 10.03125 -17.828125 C 10.625 -17.234375 10.921875 -16.28125 10.921875 -14.96875 L 10.921875 -12.3125 C 10.921875 -11.488281 10.503906 -11.078125 9.671875 -11.078125 L 9.046875 -11.078125 C 8.210938 -11.078125 7.796875 -11.488281 7.796875 -12.3125 L 7.796875 -14.65625 C 7.796875 -15.488281 7.378906 -15.90625 6.546875 -15.90625 L 5.921875 -15.90625 C 5.085938 -15.90625 4.671875 -15.488281 4.671875 -14.65625 L 4.671875 -4.046875 C 4.671875 -3.222656 5.085938 -2.8125 5.921875 -2.8125 L 9.359375 -2.8125 C 10.191406 -2.8125 10.609375 -2.394531 10.609375 -1.5625 L 10.609375 -1.25 C 10.609375 -0.414062 10.191406 0 9.359375 0 Z M 9.359375 0 "/></g></g></g><g fill="#000000" fill-opacity="1"><g transform="translate(66.868107, 23.596876)"><g><path d="M 7.796875 -8.890625 L 7.796875 -14.65625 C 7.796875 -15.488281 7.378906 -15.90625 6.546875 -15.90625 L 5.921875 -15.90625 C 5.085938 -15.90625 4.671875 -15.488281 4.671875 -14.65625 L 4.671875 -8.890625 C 4.671875 -8.472656 4.878906 -8.265625 5.296875 -8.265625 L 7.171875 -8.265625 C 7.585938 -8.265625 7.796875 -8.472656 7.796875 -8.890625 Z M 9.359375 0 L 5.296875 0 C 3.992188 0 3.046875 -0.296875 2.453125 -0.890625 C 1.859375 -1.484375 1.5625 -2.4375 1.5625 -3.75 L 1.5625 -14.96875 C 1.5625 -16.28125 1.859375 -17.234375 2.453125 -17.828125 C 3.046875 -18.421875 3.992188 -18.71875 5.296875 -18.71875 L 7.171875 -18.71875 C 8.484375 -18.71875 9.4375 -18.421875 10.03125 -17.828125 C 10.625 -17.234375 10.921875 -16.28125 10.921875 -14.96875 L 10.921875 -9.203125 C 10.921875 -7.890625 10.625 -6.9375 10.03125 -6.34375 C 9.4375 -5.75 8.484375 -5.453125 7.171875 -5.453125 L 5.296875 -5.453125 C 4.878906 -5.453125 4.671875 -5.242188 4.671875 -4.828125 L 4.671875 -4.046875 C 4.671875 -3.222656 5.085938 -2.8125 5.921875 -2.8125 L 9.359375 -2.8125 C 10.191406 -2.8125 10.609375 -2.394531 10.609375 -1.5625 L 10.609375 -1.25 C 10.609375 -0.414062 10.191406 0 9.359375 0 Z M 9.359375 0 "/></g></g></g><g fill="#000000" fill-opacity="1"><g transform="translate(78.875768, 23.596876)"><g><path d="M 17.15625 -14.96875 L 17.15625 -1.25 C 17.15625 -0.414062 16.738281 0 15.90625 0 L 15.28125 0 C 14.445312 0 14.03125 -0.414062 14.03125 -1.25 L 14.03125 -15.28125 C 14.03125 -15.695312 13.820312 -15.90625 13.40625 -15.90625 L 11.546875 -15.90625 C 11.128906 -15.90625 10.921875 -15.695312 10.921875 -15.28125 L 10.921875 -1.25 C 10.921875 -0.414062 10.503906 0 9.671875 0 L 9.046875 0 C 8.210938 0 7.796875 -0.414062 7.796875 -1.25 L 7.796875 -15.28125 C 7.796875 -15.695312 7.585938 -15.90625 7.171875 -15.90625 L 5.296875 -15.90625 C 4.878906 -15.90625 4.671875 -15.695312 4.671875 -15.28125 L 4.671875 -1.25 C 4.671875 -0.414062 4.257812 0 3.4375 0 L 2.8125 0 C 1.976562 0 1.5625 -0.414062 1.5625 -1.25 L 1.5625 -14.96875 C 1.5625 -16.28125 1.859375 -17.234375 2.453125 -17.828125 C 3.046875 -18.421875 3.992188 -18.71875 5.296875 -18.71875 L 6.078125 -18.71875 C 7.179688 -18.71875 7.976562 -18.546875 8.46875 -18.203125 C 8.957031 -17.859375 9.203125 -17.300781 9.203125 -16.53125 L 9.515625 -16.53125 C 9.515625 -17.300781 9.765625 -17.859375 10.265625 -18.203125 C 10.765625 -18.546875 11.550781 -18.71875 12.625 -18.71875 L 13.40625 -18.71875 C 14.71875 -18.71875 15.671875 -18.421875 16.265625 -17.828125 C 16.859375 -17.234375 17.15625 -16.28125 17.15625 -14.96875 Z M 17.15625 -14.96875 "/></g></g></g><g fill="#000000" fill-opacity="1"><g transform="translate(97.589001, 23.596876)"><g><path d="M 7.796875 -4.046875 L 7.796875 -14.65625 C 7.796875 -15.488281 7.378906 -15.90625 6.546875 -15.90625 L 5.921875 -15.90625 C 5.085938 -15.90625 4.671875 -15.488281 4.671875 -14.65625 L 4.671875 -4.046875 C 4.671875 -3.222656 5.085938 -2.8125 5.921875 -2.8125 L 6.546875 -2.8125 C 7.378906 -2.8125 7.796875 -3.222656 7.796875 -4.046875 Z M 7.171875 0 L 5.296875 0 C 3.992188 0 3.046875 -0.296875 2.453125 -0.890625 C 1.859375 -1.484375 1.5625 -2.4375 1.5625 -3.75 L 1.5625 -14.96875 C 1.5625 -16.28125 1.859375 -17.234375 2.453125 -17.828125 C 3.046875 -18.421875 3.992188 -18.71875 5.296875 -18.71875 L 7.171875 -18.71875 C 8.484375 -18.71875 9.4375 -18.421875 10.03125 -17.828125 C 10.625 -17.234375 10.921875 -16.28125 10.921875 -14.96875 L 10.921875 -3.75 C 10.921875 -2.4375 10.625 -1.484375 10.03125 -0.890625 C 9.4375 -0.296875 8.484375 0 7.171875 0 Z M 7.171875 0 "/></g></g></g><g fill="#000000" fill-opacity="1"><g transform="translate(110.06449, 23.596876)"><g><path d="M 3.4375 0 L 2.8125 0 C 1.976562 0 1.5625 -0.414062 1.5625 -1.25 L 1.5625 -14.96875 C 1.5625 -16.28125 1.859375 -17.234375 2.453125 -17.828125 C 3.046875 -18.421875 3.992188 -18.71875 5.296875 -18.71875 L 7.171875 -18.71875 C 8.484375 -18.71875 9.4375 -18.421875 10.03125 -17.828125 C 10.625 -17.234375 10.921875 -16.28125 10.921875 -14.96875 L 10.921875 -12.3125 C 10.921875 -11.488281 10.503906 -11.078125 9.671875 -11.078125 L 9.046875 -11.078125 C 8.210938 -11.078125 7.796875 -11.488281 7.796875 -12.3125 L 7.796875 -14.65625 C 7.796875 -15.488281 7.378906 -15.90625 6.546875 -15.90625 L 5.921875 -15.90625 C 5.085938 -15.90625 4.671875 -15.488281 4.671875 -14.65625 L 4.671875 -1.25 C 4.671875 -0.414062 4.257812 0 3.4375 0 Z M 3.4375 0 "/></g></g></g><g fill="#000000" fill-opacity="1"><g transform="translate(121.292436, 23.596876)"><g><path d="M 7.796875 -8.890625 L 7.796875 -14.65625 C 7.796875 -15.488281 7.378906 -15.90625 6.546875 -15.90625 L 5.921875 -15.90625 C 5.085938 -15.90625 4.671875 -15.488281 4.671875 -14.65625 L 4.671875 -8.890625 C 4.671875 -8.472656 4.878906 -8.265625 5.296875 -8.265625 L 7.171875 -8.265625 C 7.585938 -8.265625 7.796875 -8.472656 7.796875 -8.890625 Z M 9.359375 0 L 5.296875 0 C 3.992188 0 3.046875 -0.296875 2.453125 -0.890625 C 1.859375 -1.484375 1.5625 -2.4375 1.5625 -3.75 L 1.5625 -14.96875 C 1.5625 -16.28125 1.859375 -17.234375 2.453125 -17.828125 C 3.046875 -18.421875 3.992188 -18.71875 5.296875 -18.71875 L 7.171875 -18.71875 C 8.484375 -18.71875 9.4375 -18.421875 10.03125 -17.828125 C 10.625 -17.234375 10.921875 -16.28125 10.921875 -14.96875 L 10.921875 -9.203125 C 10.921875 -7.890625 10.625 -6.9375 10.03125 -6.34375 C 9.4375 -5.75 8.484375 -5.453125 7.171875 -5.453125 L 5.296875 -5.453125 C 4.878906 -5.453125 4.671875 -5.242188 4.671875 -4.828125 L 4.671875 -4.046875 C 4.671875 -3.222656 5.085938 -2.8125 5.921875 -2.8125 L 9.359375 -2.8125 C 10.191406 -2.8125 10.609375 -2.394531 10.609375 -1.5625 L 10.609375 -1.25 C 10.609375 -0.414062 10.191406 0 9.359375 0 Z M 9.359375 0 "/></g></g></g></g></g><g transform="matrix(1, 0, 0, 1, 66, 69)"><g clip-path="url(#2eaf969e6f)"><g clip-path="url(#007fb8200c)"><g fill="#000000" fill-opacity="1"><g transform="translate(0.489968, 7.406644)"><g><path d="M 2.71875 -4.96875 C 3.09375 -4.96875 3.398438 -4.859375 3.640625 -4.640625 C 3.898438 -4.410156 4.03125 -4.117188 4.03125 -3.765625 C 4.03125 -3.410156 3.910156 -3.109375 3.671875 -2.859375 C 3.410156 -2.585938 3.0625 -2.453125 2.625 -2.453125 L 1.609375 -2.453125 L 1.609375 0 L 0.359375 0 L 0.359375 -4.96875 Z M 1.609375 -2.515625 C 2.054688 -2.515625 2.398438 -2.625 2.640625 -2.84375 C 2.859375 -3.039062 2.96875 -3.289062 2.96875 -3.59375 C 2.96875 -4.46875 2.515625 -4.90625 1.609375 -4.90625 Z M 1.609375 -2.515625 "/></g></g></g></g><g fill="#000000" fill-opacity="1"><g transform="translate(3.986493, 7.406644)"><g><path d="M 1.65625 -3.484375 C 2.226562 -3.484375 2.679688 -3.304688 3.015625 -2.953125 C 3.316406 -2.640625 3.46875 -2.234375 3.46875 -1.734375 L 3.46875 0 L 2.421875 0 C 2.316406 -0.09375 2.253906 -0.207031 2.234375 -0.34375 C 2.003906 -0.113281 1.695312 0 1.3125 0 C 1.007812 0 0.75 -0.0820312 0.53125 -0.25 C 0.300781 -0.414062 0.1875 -0.65625 0.1875 -0.96875 C 0.1875 -1.25 0.285156 -1.484375 0.484375 -1.671875 C 0.617188 -1.804688 0.835938 -1.941406 1.140625 -2.078125 L 1.3125 -2.15625 L 1.5 -2.234375 C 1.625 -2.285156 1.722656 -2.335938 1.796875 -2.390625 C 2.003906 -2.515625 2.109375 -2.65625 2.109375 -2.8125 C 2.109375 -2.976562 2.046875 -3.113281 1.921875 -3.21875 C 1.816406 -3.320312 1.679688 -3.375 1.515625 -3.375 C 1.160156 -3.375 0.878906 -3.269531 0.671875 -3.0625 L 0.625 -3.109375 C 0.875 -3.359375 1.21875 -3.484375 1.65625 -3.484375 Z M 2.234375 -1.734375 C 2.234375 -2.203125 2.207031 -2.546875 2.15625 -2.765625 C 2.144531 -2.640625 2.101562 -2.503906 2.03125 -2.359375 C 2 -2.316406 1.957031 -2.257812 1.90625 -2.1875 L 1.84375 -2.078125 L 1.78125 -1.984375 C 1.539062 -1.628906 1.421875 -1.257812 1.421875 -0.875 C 1.421875 -0.488281 1.554688 -0.285156 1.828125 -0.265625 C 1.929688 -0.253906 2.023438 -0.28125 2.109375 -0.34375 C 2.191406 -0.414062 2.234375 -0.507812 2.234375 -0.625 Z M 2.234375 -1.734375 "/></g></g></g><g fill="#000000" fill-opacity="1"><g transform="translate(7.83122, 7.406644)"><g><path d="M 2.015625 -2.015625 C 2.347656 -2.015625 2.597656 -1.90625 2.765625 -1.6875 C 2.929688 -1.488281 2.992188 -1.253906 2.953125 -0.984375 C 2.898438 -0.691406 2.738281 -0.453125 2.46875 -0.265625 C 2.164062 -0.046875 1.757812 0.0625 1.25 0.0625 C 0.757812 0.0625 0.34375 -0.109375 0 -0.453125 L 0.046875 -0.5 C 0.296875 -0.238281 0.609375 -0.109375 0.984375 -0.109375 C 1.265625 -0.109375 1.492188 -0.207031 1.671875 -0.40625 C 1.828125 -0.582031 1.90625 -0.800781 1.90625 -1.0625 C 1.90625 -1.3125 1.84375 -1.53125 1.71875 -1.71875 C 1.5625 -1.914062 1.359375 -2.015625 1.109375 -2.015625 L 1.109375 -2.078125 C 1.285156 -2.078125 1.425781 -2.144531 1.53125 -2.28125 C 1.632812 -2.40625 1.679688 -2.554688 1.671875 -2.734375 C 1.671875 -2.921875 1.617188 -3.078125 1.515625 -3.203125 C 1.390625 -3.335938 1.222656 -3.40625 1.015625 -3.40625 C 0.742188 -3.40625 0.519531 -3.316406 0.34375 -3.140625 L 0.296875 -3.1875 C 0.503906 -3.382812 0.835938 -3.484375 1.296875 -3.484375 C 1.679688 -3.484375 1.988281 -3.410156 2.21875 -3.265625 C 2.40625 -3.140625 2.515625 -2.976562 2.546875 -2.78125 C 2.578125 -2.601562 2.539062 -2.441406 2.4375 -2.296875 C 2.332031 -2.148438 2.191406 -2.078125 2.015625 -2.078125 Z M 2.015625 -2.015625 "/></g></g></g><g fill="#000000" fill-opacity="1"><g transform="translate(10.986797, 7.406644)"><g><path d="M 5.953125 -3.421875 L 5.953125 0 L 0.359375 0 L 0.359375 -3.421875 L 1.609375 -3.421875 L 1.609375 -0.0625 L 2.53125 -0.0625 L 2.53125 -3.421875 L 3.78125 -3.421875 L 3.78125 -0.0625 L 4.71875 -0.0625 L 4.71875 -3.421875 Z M 5.953125 -3.421875 "/></g></g></g><g fill="#000000" fill-opacity="1"><g transform="translate(17.305208, 7.406644)"><g><path d="M 3.78125 -3.421875 L 3.78125 0 L 2.71875 0 C 2.625 -0.09375 2.566406 -0.203125 2.546875 -0.328125 C 2.316406 -0.109375 2.003906 0 1.609375 0 C 1.265625 0 0.976562 -0.0820312 0.75 -0.25 C 0.488281 -0.445312 0.359375 -0.726562 0.359375 -1.09375 L 0.359375 -3.421875 L 1.421875 -3.421875 C 1.546875 -3.296875 1.609375 -3.148438 1.609375 -2.984375 L 1.609375 -0.9375 C 1.609375 -0.5625 1.765625 -0.347656 2.078125 -0.296875 C 2.191406 -0.273438 2.296875 -0.296875 2.390625 -0.359375 C 2.484375 -0.421875 2.53125 -0.507812 2.53125 -0.625 L 2.53125 -3.421875 Z M 3.78125 -3.421875 "/></g></g></g><g fill="#000000" fill-opacity="1"><g transform="translate(21.447356, 7.406644)"><g><path d="M 2.515625 -3.421875 C 2.953125 -3.421875 3.296875 -3.242188 3.546875 -2.890625 C 3.773438 -2.566406 3.890625 -2.175781 3.890625 -1.71875 C 3.890625 -1.25 3.773438 -0.851562 3.546875 -0.53125 C 3.296875 -0.175781 2.953125 0 2.515625 0 C 2.140625 0 1.835938 -0.109375 1.609375 -0.328125 L 1.609375 1.546875 L 0.359375 1.546875 L 0.359375 -3.421875 L 1.421875 -3.421875 C 1.515625 -3.328125 1.570312 -3.210938 1.59375 -3.078125 C 1.820312 -3.304688 2.128906 -3.421875 2.515625 -3.421875 Z M 2 -0.21875 C 2.195312 -0.21875 2.359375 -0.375 2.484375 -0.6875 C 2.597656 -0.96875 2.65625 -1.3125 2.65625 -1.71875 C 2.664062 -2.113281 2.613281 -2.445312 2.5 -2.71875 C 2.375 -3.03125 2.207031 -3.1875 2 -3.1875 C 1.894531 -3.1875 1.800781 -3.148438 1.71875 -3.078125 C 1.644531 -2.992188 1.609375 -2.898438 1.609375 -2.796875 L 1.609375 -0.625 C 1.609375 -0.519531 1.644531 -0.425781 1.71875 -0.34375 C 1.800781 -0.257812 1.894531 -0.21875 2 -0.21875 Z M 2 -0.21875 "/></g></g></g><g fill="#000000" fill-opacity="1"><g transform="translate(25.524219, 7.406644)"><g><path d="M 3.78125 -3.421875 L 3.78125 0 L 2.71875 0 C 2.625 -0.09375 2.566406 -0.203125 2.546875 -0.328125 C 2.316406 -0.109375 2.003906 0 1.609375 0 C 1.265625 0 0.976562 -0.0820312 0.75 -0.25 C 0.488281 -0.445312 0.359375 -0.726562 0.359375 -1.09375 L 0.359375 -3.421875 L 1.421875 -3.421875 C 1.546875 -3.296875 1.609375 -3.148438 1.609375 -2.984375 L 1.609375 -0.9375 C 1.609375 -0.5625 1.765625 -0.347656 2.078125 -0.296875 C 2.191406 -0.273438 2.296875 -0.296875 2.390625 -0.359375 C 2.484375 -0.421875 2.53125 -0.507812 2.53125 -0.625 L 2.53125 -3.421875 Z M 3.78125 -3.421875 "/></g></g></g><g fill="#000000" fill-opacity="1"><g transform="translate(29.666367, 7.406644)"><g/></g></g><g fill="#000000" fill-opacity="1"><g transform="translate(31.67578, 7.406644)"><g><path d="M 4.625 -3.421875 C 5.0625 -3.421875 5.40625 -3.242188 5.65625 -2.890625 C 5.882812 -2.566406 6 -2.175781 6 -1.71875 C 6 -1.25 5.882812 -0.851562 5.65625 -0.53125 C 5.40625 -0.175781 5.0625 0 4.625 0 C 4.25 0 3.945312 -0.109375 3.71875 -0.328125 L 3.71875 1.546875 L 2.46875 1.546875 L 2.46875 -0.328125 C 2.238281 -0.109375 1.929688 0 1.546875 0 C 1.117188 0 0.773438 -0.175781 0.515625 -0.53125 C 0.296875 -0.851562 0.1875 -1.25 0.1875 -1.71875 C 0.1875 -2.175781 0.296875 -2.566406 0.515625 -2.890625 C 0.773438 -3.242188 1.117188 -3.421875 1.546875 -3.421875 C 1.929688 -3.421875 2.238281 -3.3125 2.46875 -3.09375 L 2.46875 -4.96875 L 3.71875 -4.96875 L 3.71875 -3.09375 C 3.945312 -3.3125 4.25 -3.421875 4.625 -3.421875 Z M 2.078125 -0.21875 C 2.179688 -0.21875 2.269531 -0.257812 2.34375 -0.34375 C 2.425781 -0.425781 2.46875 -0.519531 2.46875 -0.625 L 2.46875 -2.796875 C 2.46875 -2.898438 2.425781 -2.992188 2.34375 -3.078125 C 2.269531 -3.148438 2.179688 -3.1875 2.078125 -3.1875 C 1.878906 -3.1875 1.71875 -3.03125 1.59375 -2.71875 C 1.476562 -2.445312 1.414062 -2.113281 1.40625 -1.71875 C 1.40625 -1.3125 1.460938 -0.96875 1.578125 -0.6875 C 1.691406 -0.375 1.859375 -0.21875 2.078125 -0.21875 Z M 4.09375 -0.21875 C 4.3125 -0.21875 4.484375 -0.375 4.609375 -0.6875 C 4.710938 -0.96875 4.765625 -1.3125 4.765625 -1.71875 C 4.753906 -2.113281 4.695312 -2.445312 4.59375 -2.71875 C 4.46875 -3.03125 4.300781 -3.1875 4.09375 -3.1875 C 3.988281 -3.1875 3.898438 -3.148438 3.828125 -3.078125 C 3.753906 -2.992188 3.71875 -2.898438 3.71875 -2.796875 L 3.71875 -0.625 C 3.71875 -0.519531 3.753906 -0.425781 3.828125 -0.34375 C 3.898438 -0.257812 3.988281 -0.21875 4.09375 -0.21875 Z M 4.09375 -0.21875 "/></g></g></g><g fill="#000000" fill-opacity="1"><g transform="translate(37.863614, 7.406644)"><g><path d="M 3.78125 -3.421875 L 3.78125 0 L 2.71875 0 C 2.625 -0.09375 2.566406 -0.203125 2.546875 -0.328125 C 2.316406 -0.109375 2.003906 0 1.609375 0 C 1.265625 0 0.976562 -0.0820312 0.75 -0.25 C 0.488281 -0.445312 0.359375 -0.726562 0.359375 -1.09375 L 0.359375 -3.421875 L 1.421875 -3.421875 C 1.546875 -3.296875 1.609375 -3.148438 1.609375 -2.984375 L 1.609375 -0.9375 C 1.609375 -0.5625 1.765625 -0.347656 2.078125 -0.296875 C 2.191406 -0.273438 2.296875 -0.296875 2.390625 -0.359375 C 2.484375 -0.421875 2.53125 -0.507812 2.53125 -0.625 L 2.53125 -3.421875 Z M 3.78125 -3.421875 "/></g></g></g><g fill="#000000" fill-opacity="1"><g transform="translate(42.005763, 7.406644)"><g><path d="M 2.53125 -1.828125 L 1.609375 -1.828125 L 1.609375 0 L 0.359375 0 L 0.359375 -3.421875 L 1.609375 -3.421875 L 1.609375 -1.890625 L 2.53125 -1.890625 L 2.53125 -3.421875 L 3.78125 -3.421875 L 3.78125 0 L 2.71875 0 C 2.59375 -0.125 2.53125 -0.269531 2.53125 -0.4375 Z M 2.53125 -1.828125 "/></g></g></g><g fill="#000000" fill-opacity="1"><g transform="translate(46.147911, 7.406644)"><g><path d="M 1.65625 -3.484375 C 2.226562 -3.484375 2.679688 -3.304688 3.015625 -2.953125 C 3.316406 -2.640625 3.46875 -2.234375 3.46875 -1.734375 L 3.46875 0 L 2.421875 0 C 2.316406 -0.09375 2.253906 -0.207031 2.234375 -0.34375 C 2.003906 -0.113281 1.695312 0 1.3125 0 C 1.007812 0 0.75 -0.0820312 0.53125 -0.25 C 0.300781 -0.414062 0.1875 -0.65625 0.1875 -0.96875 C 0.1875 -1.25 0.285156 -1.484375 0.484375 -1.671875 C 0.617188 -1.804688 0.835938 -1.941406 1.140625 -2.078125 L 1.3125 -2.15625 L 1.5 -2.234375 C 1.625 -2.285156 1.722656 -2.335938 1.796875 -2.390625 C 2.003906 -2.515625 2.109375 -2.65625 2.109375 -2.8125 C 2.109375 -2.976562 2.046875 -3.113281 1.921875 -3.21875 C 1.816406 -3.320312 1.679688 -3.375 1.515625 -3.375 C 1.160156 -3.375 0.878906 -3.269531 0.671875 -3.0625 L 0.625 -3.109375 C 0.875 -3.359375 1.21875 -3.484375 1.65625 -3.484375 Z M 2.234375 -1.734375 C 2.234375 -2.203125 2.207031 -2.546875 2.15625 -2.765625 C 2.144531 -2.640625 2.101562 -2.503906 2.03125 -2.359375 C 2 -2.316406 1.957031 -2.257812 1.90625 -2.1875 L 1.84375 -2.078125 L 1.78125 -1.984375 C 1.539062 -1.628906 1.421875 -1.257812 1.421875 -0.875 C 1.421875 -0.488281 1.554688 -0.285156 1.828125 -0.265625 C 1.929688 -0.253906 2.023438 -0.28125 2.109375 -0.34375 C 2.191406 -0.414062 2.234375 -0.507812 2.234375 -0.625 Z M 2.234375 -1.734375 "/></g></g></g><g fill="#000000" fill-opacity="1"><g transform="translate(49.992636, 7.406644)"><g><path d="M 2.53125 -1.828125 L 1.609375 -1.828125 L 1.609375 0 L 0.359375 0 L 0.359375 -3.421875 L 1.609375 -3.421875 L 1.609375 -1.890625 L 2.53125 -1.890625 L 2.53125 -3.421875 L 3.78125 -3.421875 L 3.78125 0 L 2.71875 0 C 2.59375 -0.125 2.53125 -0.269531 2.53125 -0.4375 Z M 2.53125 -1.828125 "/></g></g></g><g fill="#000000" fill-opacity="1"><g transform="translate(54.134789, 7.406644)"><g><path d="M 2.328125 -3.34375 C 2.035156 -3.34375 1.800781 -3.171875 1.625 -2.828125 C 1.46875 -2.523438 1.390625 -2.15625 1.390625 -1.71875 C 1.390625 -1.28125 1.46875 -0.910156 1.625 -0.609375 C 1.8125 -0.273438 2.054688 -0.109375 2.359375 -0.109375 C 2.640625 -0.109375 2.90625 -0.234375 3.15625 -0.484375 L 3.203125 -0.4375 C 2.867188 -0.101562 2.4375 0.0625 1.90625 0.0625 C 1.363281 0.0625 0.929688 -0.125 0.609375 -0.5 C 0.328125 -0.820312 0.1875 -1.226562 0.1875 -1.71875 C 0.1875 -2.1875 0.328125 -2.585938 0.609375 -2.921875 C 0.929688 -3.296875 1.363281 -3.484375 1.90625 -3.484375 C 2.4375 -3.484375 2.867188 -3.316406 3.203125 -2.984375 L 3.15625 -2.9375 C 2.882812 -3.207031 2.609375 -3.34375 2.328125 -3.34375 Z M 2.328125 -3.34375 "/></g></g></g><g fill="#000000" fill-opacity="1"><g transform="translate(57.341145, 7.406644)"><g><path d="M 1.953125 -3.484375 C 2.515625 -3.484375 2.957031 -3.296875 3.28125 -2.921875 C 3.582031 -2.585938 3.734375 -2.1875 3.734375 -1.71875 C 3.734375 -1.226562 3.582031 -0.820312 3.28125 -0.5 C 2.957031 -0.125 2.515625 0.0625 1.953125 0.0625 C 1.390625 0.0625 0.945312 -0.125 0.625 -0.5 C 0.332031 -0.820312 0.1875 -1.226562 0.1875 -1.71875 C 0.1875 -2.1875 0.332031 -2.585938 0.625 -2.921875 C 0.945312 -3.296875 1.390625 -3.484375 1.953125 -3.484375 Z M 1.953125 0 C 2.140625 0 2.285156 -0.175781 2.390625 -0.53125 C 2.484375 -0.851562 2.53125 -1.25 2.53125 -1.71875 C 2.53125 -2.175781 2.484375 -2.566406 2.390625 -2.890625 C 2.285156 -3.242188 2.140625 -3.421875 1.953125 -3.421875 C 1.773438 -3.421875 1.628906 -3.242188 1.515625 -2.890625 C 1.421875 -2.566406 1.375 -2.175781 1.375 -1.71875 C 1.375 -1.25 1.421875 -0.851562 1.515625 -0.53125 C 1.628906 -0.175781 1.773438 0 1.953125 0 Z M 1.953125 0 "/></g></g></g><g fill="#000000" fill-opacity="1"><g transform="translate(61.258417, 7.406644)"><g><path d="M 2.640625 -2.015625 C 2.941406 -2.015625 3.1875 -1.910156 3.375 -1.703125 C 3.550781 -1.503906 3.628906 -1.269531 3.609375 -1 C 3.578125 -0.726562 3.4375 -0.5 3.1875 -0.3125 C 2.894531 -0.101562 2.5 0 2 0 L 0.359375 0 L 0.359375 -3.421875 L 1.90625 -3.421875 C 2.300781 -3.421875 2.609375 -3.347656 2.828125 -3.203125 C 3.023438 -3.085938 3.140625 -2.9375 3.171875 -2.75 C 3.203125 -2.570312 3.164062 -2.414062 3.0625 -2.28125 C 2.957031 -2.144531 2.816406 -2.078125 2.640625 -2.078125 Z M 1.609375 -2.078125 C 1.816406 -2.078125 1.984375 -2.144531 2.109375 -2.28125 C 2.234375 -2.394531 2.300781 -2.539062 2.3125 -2.71875 C 2.3125 -2.882812 2.257812 -3.03125 2.15625 -3.15625 C 2.039062 -3.289062 1.878906 -3.359375 1.671875 -3.359375 L 1.609375 -3.359375 Z M 1.609375 -0.0625 C 1.878906 -0.0820312 2.085938 -0.191406 2.234375 -0.390625 C 2.367188 -0.578125 2.4375 -0.800781 2.4375 -1.0625 C 2.425781 -1.320312 2.351562 -1.539062 2.21875 -1.71875 C 2.0625 -1.914062 1.859375 -2.015625 1.609375 -2.015625 Z M 1.609375 -0.0625 "/></g></g></g><g fill="#000000" fill-opacity="1"><g transform="translate(65.052363, 7.406644)"><g><path d="M 3.78125 -3.421875 L 3.78125 0 L 2.71875 0 C 2.625 -0.09375 2.566406 -0.203125 2.546875 -0.328125 C 2.316406 -0.109375 2.003906 0 1.609375 0 C 1.265625 0 0.976562 -0.0820312 0.75 -0.25 C 0.488281 -0.445312 0.359375 -0.726562 0.359375 -1.09375 L 0.359375 -3.421875 L 1.421875 -3.421875 C 1.546875 -3.296875 1.609375 -3.148438 1.609375 -2.984375 L 1.609375 -0.9375 C 1.609375 -0.5625 1.765625 -0.347656 2.078125 -0.296875 C 2.191406 -0.273438 2.296875 -0.296875 2.390625 -0.359375 C 2.484375 -0.421875 2.53125 -0.507812 2.53125 -0.625 L 2.53125 -3.421875 Z M 3.78125 -3.421875 "/></g></g></g><g fill="#000000" fill-opacity="1"><g transform="translate(69.194511, 7.406644)"><g><path d="M 3.484375 -3.421875 L 3.484375 0 L 2.25 0 L 2.25 -1 C 2.257812 -1.34375 2.265625 -1.597656 2.265625 -1.765625 C 2.046875 -1.734375 1.863281 -1.554688 1.71875 -1.234375 C 1.675781 -1.140625 1.628906 -1.03125 1.578125 -0.90625 L 1.453125 -0.59375 C 1.347656 -0.332031 1.265625 -0.132812 1.203125 0 L 0 0 C 0.101562 -0.195312 0.21875 -0.4375 0.34375 -0.71875 L 0.421875 -0.875 L 0.453125 -0.953125 L 0.484375 -1.015625 C 0.523438 -1.117188 0.554688 -1.195312 0.578125 -1.25 C 0.722656 -1.53125 0.957031 -1.703125 1.28125 -1.765625 L 1.28125 -1.828125 C 1.019531 -1.828125 0.816406 -1.910156 0.671875 -2.078125 C 0.523438 -2.234375 0.46875 -2.414062 0.5 -2.625 C 0.519531 -2.84375 0.617188 -3.023438 0.796875 -3.171875 C 1.003906 -3.335938 1.28125 -3.421875 1.625 -3.421875 Z M 2.265625 -3.359375 C 2.023438 -3.359375 1.835938 -3.28125 1.703125 -3.125 C 1.578125 -2.976562 1.515625 -2.800781 1.515625 -2.59375 C 1.515625 -2.382812 1.578125 -2.207031 1.703125 -2.0625 C 1.835938 -1.90625 2.023438 -1.828125 2.265625 -1.828125 Z M 2.265625 -3.359375 "/></g></g></g><g fill="#000000" fill-opacity="1"><g transform="translate(73.061, 7.406644)"><g/></g></g><g fill="#000000" fill-opacity="1"><g transform="translate(75.070413, 7.406644)"><g><path d="M 2.328125 -3.34375 C 2.035156 -3.34375 1.800781 -3.171875 1.625 -2.828125 C 1.46875 -2.523438 1.390625 -2.15625 1.390625 -1.71875 C 1.390625 -1.28125 1.46875 -0.910156 1.625 -0.609375 C 1.8125 -0.273438 2.054688 -0.109375 2.359375 -0.109375 C 2.640625 -0.109375 2.90625 -0.234375 3.15625 -0.484375 L 3.203125 -0.4375 C 2.867188 -0.101562 2.4375 0.0625 1.90625 0.0625 C 1.363281 0.0625 0.929688 -0.125 0.609375 -0.5 C 0.328125 -0.820312 0.1875 -1.226562 0.1875 -1.71875 C 0.1875 -2.1875 0.328125 -2.585938 0.609375 -2.921875 C 0.929688 -3.296875 1.363281 -3.484375 1.90625 -3.484375 C 2.4375 -3.484375 2.867188 -3.316406 3.203125 -2.984375 L 3.15625 -2.9375 C 2.882812 -3.207031 2.609375 -3.34375 2.328125 -3.34375 Z M 2.328125 -3.34375 "/></g></g></g><g fill="#000000" fill-opacity="1"><g transform="translate(78.276774, 7.406644)"><g><path d="M 3.78125 -3.421875 L 3.78125 0 L 2.71875 0 C 2.625 -0.09375 2.566406 -0.203125 2.546875 -0.328125 C 2.316406 -0.109375 2.003906 0 1.609375 0 C 1.265625 0 0.976562 -0.0820312 0.75 -0.25 C 0.488281 -0.445312 0.359375 -0.726562 0.359375 -1.09375 L 0.359375 -3.421875 L 1.421875 -3.421875 C 1.546875 -3.296875 1.609375 -3.148438 1.609375 -2.984375 L 1.609375 -0.9375 C 1.609375 -0.5625 1.765625 -0.347656 2.078125 -0.296875 C 2.191406 -0.273438 2.296875 -0.296875 2.390625 -0.359375 C 2.484375 -0.421875 2.53125 -0.507812 2.53125 -0.625 L 2.53125 -3.421875 Z M 3.78125 -3.421875 "/></g></g></g><g fill="#000000" fill-opacity="1"><g transform="translate(82.418918, 7.406644)"><g/></g></g><g fill="#000000" fill-opacity="1"><g transform="translate(84.428331, 7.406644)"><g><path d="M 4.625 -3.421875 L 4.625 0 L 3.390625 0 L 3.390625 -3.28125 L 1.9375 0 L 1.875 0 L 0.421875 -3.28125 L 0.421875 0 L 0.359375 0 L 0.359375 -3.421875 L 1.609375 -3.421875 L 2.5 -1.40625 L 3.390625 -3.421875 Z M 4.625 -3.421875 "/></g></g></g><g fill="#000000" fill-opacity="1"><g transform="translate(89.426478, 7.406644)"><g><path d="M 3.78125 -3.421875 L 3.78125 0 L 2.71875 0 C 2.625 -0.09375 2.566406 -0.203125 2.546875 -0.328125 C 2.316406 -0.109375 2.003906 0 1.609375 0 C 1.265625 0 0.976562 -0.0820312 0.75 -0.25 C 0.488281 -0.445312 0.359375 -0.726562 0.359375 -1.09375 L 0.359375 -3.421875 L 1.421875 -3.421875 C 1.546875 -3.296875 1.609375 -3.148438 1.609375 -2.984375 L 1.609375 -0.9375 C 1.609375 -0.5625 1.765625 -0.347656 2.078125 -0.296875 C 2.191406 -0.273438 2.296875 -0.296875 2.390625 -0.359375 C 2.484375 -0.421875 2.53125 -0.507812 2.53125 -0.625 L 2.53125 -3.421875 Z M 3.78125 -3.421875 "/></g></g></g><g fill="#000000" fill-opacity="1"><g transform="translate(93.568622, 7.406644)"><g><path d="M 2.515625 -3.421875 C 2.953125 -3.421875 3.296875 -3.242188 3.546875 -2.890625 C 3.773438 -2.566406 3.890625 -2.175781 3.890625 -1.71875 C 3.890625 -1.25 3.773438 -0.851562 3.546875 -0.53125 C 3.296875 -0.175781 2.953125 0 2.515625 0 C 2.140625 0 1.835938 -0.109375 1.609375 -0.328125 L 1.609375 1.546875 L 0.359375 1.546875 L 0.359375 -3.421875 L 1.421875 -3.421875 C 1.515625 -3.328125 1.570312 -3.210938 1.59375 -3.078125 C 1.820312 -3.304688 2.128906 -3.421875 2.515625 -3.421875 Z M 2 -0.21875 C 2.195312 -0.21875 2.359375 -0.375 2.484375 -0.6875 C 2.597656 -0.96875 2.65625 -1.3125 2.65625 -1.71875 C 2.664062 -2.113281 2.613281 -2.445312 2.5 -2.71875 C 2.375 -3.03125 2.207031 -3.1875 2 -3.1875 C 1.894531 -3.1875 1.800781 -3.148438 1.71875 -3.078125 C 1.644531 -2.992188 1.609375 -2.898438 1.609375 -2.796875 L 1.609375 -0.625 C 1.609375 -0.519531 1.644531 -0.425781 1.71875 -0.34375 C 1.800781 -0.257812 1.894531 -0.21875 2 -0.21875 Z M 2 -0.21875 "/></g></g></g><g fill="#000000" fill-opacity="1"><g transform="translate(97.645487, 7.406644)"><g><path d="M 1.953125 -3.484375 C 2.515625 -3.484375 2.957031 -3.296875 3.28125 -2.921875 C 3.582031 -2.585938 3.734375 -2.1875 3.734375 -1.71875 C 3.734375 -1.226562 3.582031 -0.820312 3.28125 -0.5 C 2.957031 -0.125 2.515625 0.0625 1.953125 0.0625 C 1.390625 0.0625 0.945312 -0.125 0.625 -0.5 C 0.332031 -0.820312 0.1875 -1.226562 0.1875 -1.71875 C 0.1875 -2.1875 0.332031 -2.585938 0.625 -2.921875 C 0.945312 -3.296875 1.390625 -3.484375 1.953125 -3.484375 Z M 1.953125 0 C 2.140625 0 2.285156 -0.175781 2.390625 -0.53125 C 2.484375 -0.851562 2.53125 -1.25 2.53125 -1.71875 C 2.53125 -2.175781 2.484375 -2.566406 2.390625 -2.890625 C 2.285156 -3.242188 2.140625 -3.421875 1.953125 -3.421875 C 1.773438 -3.421875 1.628906 -3.242188 1.515625 -2.890625 C 1.421875 -2.566406 1.375 -2.175781 1.375 -1.71875 C 1.375 -1.25 1.421875 -0.851562 1.515625 -0.53125 C 1.628906 -0.175781 1.773438 0 1.953125 0 Z M 1.953125 0 "/></g></g></g><g fill="#000000" fill-opacity="1"><g transform="translate(101.562755, 7.406644)"><g><path d="M 2.84375 -3.359375 L 1.609375 -3.359375 L 1.609375 0 L 0.359375 0 L 0.359375 -3.421875 L 2.84375 -3.421875 Z M 2.84375 -3.359375 "/></g></g></g><g fill="#000000" fill-opacity="1"><g transform="translate(104.413662, 7.406644)"><g><path d="M 2.984375 -3.421875 L 2.984375 0 L 1.75 0 L 1.75 -3.359375 L 0.5 -3.359375 L 0.5 -0.6875 C 0.5 -0.5 0.429688 -0.335938 0.296875 -0.203125 C 0.160156 -0.0664062 0 0 -0.1875 0 L -0.1875 -0.0625 C -0.0078125 -0.0625 0.140625 -0.125 0.265625 -0.25 C 0.378906 -0.363281 0.4375 -0.507812 0.4375 -0.6875 L 0.4375 -3.421875 Z M 2.984375 -3.421875 "/></g></g></g><g fill="#000000" fill-opacity="1"><g transform="translate(107.77236, 7.406644)"><g><path d="M 2.484375 -0.109375 C 2.765625 -0.109375 3.023438 -0.234375 3.265625 -0.484375 L 3.3125 -0.4375 C 2.976562 -0.101562 2.546875 0.0625 2.015625 0.0625 C 1.429688 0.0625 0.96875 -0.125 0.625 -0.5 C 0.320312 -0.820312 0.175781 -1.226562 0.1875 -1.71875 C 0.1875 -2.1875 0.335938 -2.585938 0.640625 -2.921875 C 0.972656 -3.296875 1.414062 -3.484375 1.96875 -3.484375 C 2.46875 -3.484375 2.894531 -3.304688 3.25 -2.953125 C 3.570312 -2.617188 3.734375 -2.242188 3.734375 -1.828125 L 1.375 -1.828125 C 1.382812 -1.347656 1.46875 -0.957031 1.625 -0.65625 C 1.820312 -0.289062 2.109375 -0.109375 2.484375 -0.109375 Z M 1.96875 -3.421875 C 1.800781 -3.421875 1.664062 -3.257812 1.5625 -2.9375 C 1.445312 -2.632812 1.382812 -2.285156 1.375 -1.890625 L 2.515625 -1.890625 C 2.503906 -2.910156 2.320312 -3.421875 1.96875 -3.421875 Z M 1.96875 -3.421875 "/></g></g></g><g fill="#000000" fill-opacity="1"><g transform="translate(111.696878, 7.406644)"><g><path d="M 4.109375 -0.0625 L 4.109375 0.5625 L 4.03125 0.5625 L 4.03125 0 L 0.0625 0 L 0.0625 0.5625 L 0 0.5625 L 0 -0.0625 L 0.3125 -0.0625 C 0.476562 -0.0625 0.625 -0.125 0.75 -0.25 C 0.875 -0.363281 0.9375 -0.507812 0.9375 -0.6875 L 0.9375 -3.421875 L 3.484375 -3.421875 L 3.484375 -0.0625 Z M 2.234375 -0.0625 L 2.234375 -3.359375 L 1 -3.359375 L 1 -0.6875 C 1 -0.394531 0.863281 -0.1875 0.59375 -0.0625 Z M 2.234375 -0.0625 "/></g></g></g><g clip-path="url(#3421c81ade)"><g fill="#000000" fill-opacity="1"><g transform="translate(115.802762, 7.406644)"><g><path d="M 0.984375 0 C 0.859375 0 0.75 -0.046875 0.65625 -0.140625 C 0.5625 -0.234375 0.515625 -0.34375 0.515625 -0.46875 C 0.515625 -0.59375 0.5625 -0.703125 0.65625 -0.796875 C 0.75 -0.890625 0.859375 -0.9375 0.984375 -0.9375 C 1.109375 -0.9375 1.21875 -0.890625 1.3125 -0.796875 C 1.40625 -0.703125 1.453125 -0.59375 1.453125 -0.46875 C 1.453125 -0.34375 1.40625 -0.234375 1.3125 -0.140625 C 1.21875 -0.046875 1.109375 0 0.984375 0 Z M 0.953125 -1.234375 C 0.953125 -1.378906 0.851562 -1.90625 0.65625 -2.8125 C 0.457031 -3.71875 0.359375 -4.4375 0.359375 -4.96875 L 1.609375 -4.96875 C 1.609375 -4.4375 1.507812 -3.71875 1.3125 -2.8125 C 1.113281 -1.90625 1.015625 -1.378906 1.015625 -1.234375 Z M 0.953125 -1.234375 "/></g></g></g></g></g></g></svg>