<svg xmlns="http://www.w3.org/2000/svg" xmlns:xlink="http://www.w3.org/1999/xlink" width="40" zoomAndPan="magnify" viewBox="0 0 30 30.000001" height="40" preserveAspectRatio="xMidYMid meet" version="1.0"><defs><clipPath id="f59dc00ef9"><path d="M 0.484375 0 L 29.515625 0 L 29.515625 29.03125 L 0.484375 29.03125 Z M 0.484375 0 " clip-rule="nonzero"/></clipPath><clipPath id="03bcca43b8"><path d="M 10.167969 0.414062 C 11.648438 0.164062 13.347656 0 15.007812 0 C 16.667969 0 18.265625 0.140625 19.738281 0.390625 C 19.769531 0.398438 19.800781 0.398438 19.832031 0.40625 C 25.363281 1.402344 29.4375 4.039062 29.515625 7.371094 L 29.515625 29.03125 L 0.484375 29.03125 L 0.484375 7.386719 C 0.5625 4.023438 4.574219 1.386719 10.167969 0.414062 Z M 10.167969 0.414062 " clip-rule="nonzero"/></clipPath><clipPath id="f3fa6322e1"><path d="M 0.484375 0 L 29.515625 0 L 29.515625 29.03125 L 0.484375 29.03125 Z M 0.484375 0 " clip-rule="nonzero"/></clipPath><clipPath id="345422ad9a"><path d="M 10.167969 0.414062 C 11.648438 0.164062 13.347656 0 15.007812 0 C 16.667969 0 18.265625 0.140625 19.738281 0.390625 C 19.769531 0.398438 19.800781 0.398438 19.832031 0.40625 C 25.363281 1.402344 29.4375 4.039062 29.515625 7.371094 L 29.515625 29.03125 L 0.484375 29.03125 L 0.484375 7.386719 C 0.5625 4.023438 4.574219 1.386719 10.167969 0.414062 Z M 10.167969 0.414062 " clip-rule="nonzero"/></clipPath><clipPath id="939ea4db35"><rect x="0" width="30" y="0" height="30"/></clipPath><clipPath id="d0283dec52"><path d="M 3.566406 3.523438 L 25.597656 3.523438 L 25.597656 26.949219 L 3.566406 26.949219 Z M 3.566406 3.523438 " clip-rule="nonzero"/></clipPath><clipPath id="9c94cfbc4a"><path d="M 12.53125 8.203125 C 12.460938 5.660156 11.878906 5.082031 11.445312 5.007812 C 11.007812 4.933594 10.5 5.226562 10.136719 5.589844 C 9.773438 5.953125 9.554688 6.460938 9.484375 7.402344 C 9.195312 9.871094 11.371094 18.21875 11.296875 21.410156 C 11.296875 23.082031 11.296875 24.316406 10.574219 25.183594 C 9.992188 26.054688 8.613281 26.925781 7.667969 26.925781 C 6.652344 26.925781 5.417969 26.054688 4.765625 25.257812 C 4.113281 24.53125 3.824219 23.515625 3.675781 22.5 C 3.605469 21.339844 3.675781 19.597656 4.257812 18.433594 C 4.765625 17.347656 5.710938 16.402344 6.796875 15.675781 C 7.960938 14.953125 9.917969 14.371094 11.082031 14.226562 C 11.953125 14.152344 12.675781 14.152344 13.332031 14.445312 C 14.054688 14.804688 14.636719 15.386719 15.074219 16.183594 C 15.652344 17.347656 16.015625 19.378906 16.089844 20.902344 C 16.160156 22.210938 15.945312 24.460938 15.507812 24.675781 C 15.289062 24.75 14.925781 24.460938 14.710938 24.097656 C 14.273438 23.445312 14.054688 21.339844 14.128906 19.886719 C 14.273438 18.507812 14.710938 16.332031 15.433594 15.675781 C 15.871094 15.242188 16.453125 15.167969 16.960938 15.167969 C 17.683594 15.242188 18.628906 15.53125 19.210938 16.257812 C 20.226562 17.636719 20.007812 23.589844 20.953125 23.953125 C 21.460938 24.167969 22.332031 23.296875 22.839844 22.5 C 23.710938 20.976562 23.347656 15.386719 24.21875 14.445312 C 24.507812 14.082031 25.234375 14.007812 25.378906 14.152344 C 25.523438 14.296875 25.453125 15.242188 25.234375 15.316406 C 25.015625 15.460938 24.144531 14.953125 24.144531 14.734375 C 24.144531 14.515625 25.089844 13.933594 25.304688 14.082031 C 25.742188 14.296875 25.597656 16.621094 25.378906 18 C 25.089844 19.816406 24.507812 22.789062 23.636719 24.023438 C 22.984375 24.824219 22.113281 25.332031 21.460938 25.402344 C 20.878906 25.476562 20.371094 25.402344 19.933594 25.039062 C 19.425781 24.605469 19.066406 23.660156 18.773438 22.644531 C 18.339844 21.265625 18.773438 18.144531 18.121094 17.273438 C 17.757812 16.765625 17.03125 16.402344 16.597656 16.621094 C 16.089844 16.839844 15.726562 18.433594 15.582031 19.523438 C 15.433594 20.902344 16.523438 23.445312 16.089844 24.097656 C 15.871094 24.460938 15.289062 24.75 15 24.53125 C 14.273438 24.097656 14.566406 18.726562 13.984375 17.273438 C 13.621094 16.546875 13.332031 16.113281 12.894531 15.824219 C 12.460938 15.605469 11.878906 15.605469 11.296875 15.675781 C 10.355469 15.75 8.757812 16.183594 7.816406 16.765625 C 6.945312 17.273438 6.21875 17.855469 5.78125 18.652344 C 5.273438 19.597656 5.054688 21.265625 5.128906 22.28125 C 5.203125 23.152344 5.566406 24.097656 6.074219 24.605469 C 6.582031 25.113281 7.523438 25.621094 8.105469 25.402344 C 8.832031 25.183594 9.554688 24.097656 9.847656 22.789062 C 10.425781 20.25 8.105469 13.789062 7.960938 10.667969 C 7.886719 8.855469 7.886719 7.402344 8.25 6.167969 C 8.539062 5.226562 9.046875 4.355469 9.703125 3.992188 C 10.425781 3.554688 11.660156 3.484375 12.386719 3.847656 C 13.257812 4.355469 14.347656 6.023438 14.417969 6.96875 C 14.492188 7.765625 13.984375 8.925781 13.546875 9.21875 C 13.257812 9.363281 12.75 9.363281 12.605469 9.144531 C 12.386719 9 12.53125 8.203125 12.53125 8.203125 " clip-rule="nonzero"/></clipPath><clipPath id="5f4cfdedb6"><path d="M 0.566406 0.523438 L 22.597656 0.523438 L 22.597656 23.941406 L 0.566406 23.941406 Z M 0.566406 0.523438 " clip-rule="nonzero"/></clipPath><clipPath id="2be5b31d45"><path d="M 9.53125 5.203125 C 9.460938 2.660156 8.878906 2.082031 8.445312 2.007812 C 8.007812 1.933594 7.5 2.226562 7.136719 2.589844 C 6.773438 2.953125 6.554688 3.460938 6.484375 4.402344 C 6.195312 6.871094 8.371094 15.21875 8.296875 18.410156 C 8.296875 20.082031 8.296875 21.316406 7.574219 22.183594 C 6.992188 23.054688 5.613281 23.925781 4.667969 23.925781 C 3.652344 23.925781 2.417969 23.054688 1.765625 22.257812 C 1.113281 21.53125 0.824219 20.515625 0.675781 19.5 C 0.605469 18.339844 0.675781 16.597656 1.257812 15.433594 C 1.765625 14.347656 2.710938 13.402344 3.796875 12.675781 C 4.960938 11.953125 6.917969 11.371094 8.082031 11.226562 C 8.953125 11.152344 9.675781 11.152344 10.332031 11.445312 C 11.054688 11.804688 11.636719 12.386719 12.074219 13.183594 C 12.652344 14.347656 13.015625 16.378906 13.089844 17.902344 C 13.160156 19.210938 12.945312 21.460938 12.507812 21.675781 C 12.289062 21.75 11.925781 21.460938 11.710938 21.097656 C 11.273438 20.445312 11.054688 18.339844 11.128906 16.886719 C 11.273438 15.507812 11.710938 13.332031 12.433594 12.675781 C 12.871094 12.242188 13.453125 12.167969 13.960938 12.167969 C 14.683594 12.242188 15.628906 12.53125 16.210938 13.257812 C 17.226562 14.636719 17.007812 20.589844 17.953125 20.953125 C 18.460938 21.167969 19.332031 20.296875 19.839844 19.5 C 20.710938 17.976562 20.347656 12.386719 21.21875 11.445312 C 21.507812 11.082031 22.234375 11.007812 22.378906 11.152344 C 22.523438 11.296875 22.453125 12.242188 22.234375 12.316406 C 22.015625 12.460938 21.144531 11.953125 21.144531 11.734375 C 21.144531 11.515625 22.089844 10.933594 22.304688 11.082031 C 22.742188 11.296875 22.597656 13.621094 22.378906 15 C 22.089844 16.816406 21.507812 19.789062 20.636719 21.023438 C 19.984375 21.824219 19.113281 22.332031 18.460938 22.402344 C 17.878906 22.476562 17.371094 22.402344 16.933594 22.039062 C 16.425781 21.605469 16.066406 20.660156 15.773438 19.644531 C 15.339844 18.265625 15.773438 15.144531 15.121094 14.273438 C 14.757812 13.765625 14.03125 13.402344 13.597656 13.621094 C 13.089844 13.839844 12.726562 15.433594 12.582031 16.523438 C 12.433594 17.902344 13.523438 20.445312 13.089844 21.097656 C 12.871094 21.460938 12.289062 21.75 12 21.53125 C 11.273438 21.097656 11.566406 15.726562 10.984375 14.273438 C 10.621094 13.546875 10.332031 13.113281 9.894531 12.824219 C 9.460938 12.605469 8.878906 12.605469 8.296875 12.675781 C 7.355469 12.75 5.757812 13.183594 4.816406 13.765625 C 3.945312 14.273438 3.21875 14.855469 2.78125 15.652344 C 2.273438 16.597656 2.054688 18.265625 2.128906 19.28125 C 2.203125 20.152344 2.566406 21.097656 3.074219 21.605469 C 3.582031 22.113281 4.523438 22.621094 5.105469 22.402344 C 5.832031 22.183594 6.554688 21.097656 6.847656 19.789062 C 7.425781 17.25 5.105469 10.789062 4.960938 7.667969 C 4.886719 5.855469 4.886719 4.402344 5.25 3.167969 C 5.539062 2.226562 6.046875 1.355469 6.703125 0.992188 C 7.425781 0.554688 8.660156 0.484375 9.386719 0.847656 C 10.257812 1.355469 11.347656 3.023438 11.417969 3.96875 C 11.492188 4.765625 10.984375 5.925781 10.546875 6.21875 C 10.257812 6.363281 9.75 6.363281 9.605469 6.144531 C 9.386719 6 9.53125 5.203125 9.53125 5.203125 " clip-rule="nonzero"/></clipPath><clipPath id="1cd4fdb046"><rect x="0" width="23" y="0" height="24"/></clipPath></defs><g clip-path="url(#f59dc00ef9)"><g clip-path="url(#03bcca43b8)"><g transform="matrix(1, 0, 0, 1, 0, 0.000000000000005692)"><g clip-path="url(#939ea4db35)"><g clip-path="url(#f3fa6322e1)"><g clip-path="url(#345422ad9a)"><path fill="#1e85d9" d="M 0.484375 0 L 29.515625 0 L 29.515625 29.03125 L 0.484375 29.03125 Z M 0.484375 0 " fill-opacity="1" fill-rule="nonzero"/></g></g></g></g></g></g><g clip-path="url(#d0283dec52)"><g clip-path="url(#9c94cfbc4a)"><g transform="matrix(1, 0, 0, 1, 3, 3)"><g clip-path="url(#1cd4fdb046)"><g clip-path="url(#5f4cfdedb6)"><g clip-path="url(#2be5b31d45)"><rect x="-9.6" width="43.2" fill="#000000" height="43.200001" y="-9.6" fill-opacity="1"/></g></g></g></g></g></g></svg>